<svg width="35" height="35" viewBox="0 0 35 35" fill="none" xmlns="http://www.w3.org/2000/svg">
<rect width="35" height="35" rx="17.5" fill="#215FFF"/>
<path fill-rule="evenodd" clip-rule="evenodd" d="M16.5021 8.01043C15.3576 8.14981 14.3991 8.61212 13.6033 9.40865C12.8965 10.116 12.489 10.8711 12.2812 11.8584C12.1938 12.2734 12.1938 13.2024 12.2812 13.6173C12.4893 14.6057 12.8979 15.3624 13.6033 16.0655C14.3196 16.7795 15.1023 17.1977 16.1109 17.4055C16.5254 17.4909 17.464 17.4908 17.8977 17.4053C18.8574 17.2162 19.6526 16.7949 20.3658 16.0977C21.0821 15.3976 21.5086 14.6155 21.7188 13.6173C21.8062 13.2025 21.8062 12.2734 21.7188 11.8584C21.5822 11.2094 21.3289 10.6058 20.966 10.0644C20.7421 9.73032 20.0473 9.04069 19.7177 8.82529C19.1444 8.45068 18.5264 8.19346 17.9169 8.0759C17.6303 8.0206 16.7523 7.97997 16.5021 8.01043ZM15.0889 18.5977C13.0996 18.8361 11.3033 19.9539 10.1468 21.6731C9.46893 22.6809 9.08015 23.8673 9.01112 25.1387C8.99003 25.5274 8.99433 25.5733 9.06478 25.7099C9.11578 25.8088 9.18823 25.882 9.28172 25.9292C9.4211 25.9995 9.47537 26 17 26C24.5246 26 24.5789 25.9995 24.7183 25.9292C24.8118 25.882 24.8842 25.8088 24.9352 25.7099C25.0057 25.5733 25.01 25.5274 24.9889 25.1387C24.8947 23.4049 24.2263 21.8845 23.0112 20.6402C21.8597 19.4611 20.3714 18.7416 18.7477 18.5791C18.2081 18.5251 15.5833 18.5385 15.0889 18.5977Z" fill="white"/>
</svg>
