<svg width="38" height="38" viewBox="0 0 38 38" fill="none" xmlns="http://www.w3.org/2000/svg">
<path d="M19.0015 37.925L24.2968 8.01709C29.3441 8.01709 30.9361 8.57292 31.166 10.8417C31.166 10.8417 34.5519 9.57381 36.2596 6.99882C29.5956 3.89769 22.8998 3.75783 22.8998 3.75783L18.9927 8.53695L19.0015 8.53635L15.0944 3.75708C15.0944 3.75708 8.39846 3.89709 1.73535 6.99822C3.44158 9.57321 6.82881 10.8411 6.82881 10.8411C7.06001 8.57217 8.65011 8.01634 13.6636 8.01275L19.0015 37.925Z" fill="#215FFF"/>
<path d="M18.9996 2.37742C24.3865 2.33605 30.5524 3.21431 36.8644 5.97712C37.7081 4.45219 37.925 3.77824 37.925 3.77824C31.025 1.03671 24.5632 0.0984855 18.9988 0.0749512C13.4348 0.0984855 6.97331 1.03686 0.0742188 3.77824C0.0742188 3.77824 0.381999 4.60838 1.13399 5.97712C7.44483 3.21431 13.6118 2.33605 18.9988 2.37742H18.9996Z" fill="#215FFF"/>
</svg>
